PathFileType	4	(x/y/z)	A01_STANDINGCAL_T0011.trc
DataRate	CameraRate	NumFrames	NumMarkers	Units	OrigDataRate	OrigDataStartFrame	OrigNumFrames
240	240	6	48	mm	240	301	1200
Frame#	Time	TOP_HEAD			R_AC			L_AC			R_ASIS			L_ASIS			R_PSIS			L_PSIS			SACRAL			L_IC			R_IC			L_GT			R_GT			R_LAT_KNEE			R_MED_KNEE			L_MED_KNEE			L_LAT_KNEE			R_TOE			L_TOE			R_1ST_MET			L_1ST_MET			L_5TH_MET			R_5TH_MET			R_LAT_ANK			R_MED_ANK			L_MED_ANK			L_LAT_ANK			L_HEEL_SUP			R_HEEL_SUP			L_HEEL_LAT			R_HEEL_LAT			L_HEEL_MED			R_HEEL_MED			R_LL_PROX_POST			R_LL_PROX_ANT			R_LL_DIST_ANT			R_LL_DIST_POST			R_THIGH_PROX_POST			R_THIGH_PROX_ANT			R_THIGH_DIST_ANT			R_THIGH_DIST_POST			L_PROS_PROX_ANT			L_PROS_PROX_POST			L_PROS_DIST_POST			L_PROS_DIST_ANT			L_THIGH_PROX_ANT			L_THIGH_PROX_POST			L_THIGH_DIST_POST			L_THIGH_DIST_ANT			
		X1	Y1	Z1	X2	Y2	Z2	X3	Y3	Z3	X4	Y4	Z4	X5	Y5	Z5	X6	Y6	Z6	X7	Y7	Z7	X8	Y8	Z8	X9	Y9	Z9	X10	Y10	Z10	X11	Y11	Z11	X12	Y12	Z12	X13	Y13	Z13	X14	Y14	Z14	X15	Y15	Z15	X16	Y16	Z16	X17	Y17	Z17	X18	Y18	Z18	X19	Y19	Z19	X20	Y20	Z20	X21	Y21	Z21	X22	Y22	Z22	X23	Y23	Z23	X24	Y24	Z24	X25	Y25	Z25	X26	Y26	Z26	X27	Y27	Z27	X28	Y28	Z28	X29	Y29	Z29	X30	Y30	Z30	X31	Y31	Z31	X32	Y32	Z32	X33	Y33	Z33	X34	Y34	Z34	X35	Y35	Z35	X36	Y36	Z36	X37	Y37	Z37	X38	Y38	Z38	X39	Y39	Z39	X40	Y40	Z40	X41	Y41	Z41	X42	Y42	Z42	X43	Y43	Z43	X44	Y44	Z44	X45	Y45	Z45	X46	Y46	Z46	X47	Y47	Z47	X48	Y48	Z48	

301	1.251	592.64	1867	322.22	582.9	1594.4	490.59	599.29	1603.5	84.881	681.84	1093.9	488.24	714.17	1061.8	131.45	477.7	1100.8	341.17	495.96	1106.3	212.6	468.87	1076.2	272.4	672.42	1183	90.194	626.3	1197.2	498.32	649.32	971.87	83.799	607.96	986.19	516.99	549.13	581.37	469.39	596.01	568.44	345.05	605.91	558.41	305.04	593.42	576	147.29	774.92	72.537	452.99	776.81	85.518	172.57	698.08	57.582	395.42	695.9	57.154	225.26	670.07	50.721	95.084	651.5	45.962	523.66	526.56	111.1	475.95	565.67	117.46	378.67	565.31	126.58	208.66	540.17	123.06	141.29	453.79	73.389	173.21	448.52	69.706	408.22	466.1	45.649	142.69	452.2	45.674	443.14	472.31	44.852	206.21	462.94	43.703	381.86	516.89	400.01	499.95	452.66	405.01	465.8	472.61	323.96	467.83	524.52	324.34	490.85	550.18	862.92	494.14	618.85	876.28	513.49	615.75	784.68	508.09	550.15	773.31	489.08	638.54	492.67	156.67	584.52	493.63	143.06	577.93	430.78	146.7	630.33	437.25	159.09	690.67	821.58	127	624.23	833.98	103.31	625.05	758.8	118.82	686.17	748.69	139.83
302	1.2552	592.64	1867	322.22	582.91	1594.4	490.59	599.3	1603.5	84.875	681.85	1093.9	488.25	714.19	1061.7	131.46	477.71	1100.8	341.17	495.98	1106.3	212.6	468.89	1076.2	272.39	672.45	1183	90.197	626.3	1197.2	498.32	649.34	971.87	83.805	607.97	986.19	517	549.13	581.38	469.39	596.02	568.45	345.05	605.93	558.42	305.04	593.43	576	147.29	774.92	72.534	452.99	776.81	85.518	172.57	698.08	57.582	395.43	695.9	57.155	225.25	670.07	50.721	95.084	651.5	45.963	523.66	526.56	111.11	475.95	565.68	117.46	378.66	565.31	126.58	208.66	540.18	123.06	141.29	453.79	73.388	173.22	448.53	69.712	408.21	466.1	45.65	142.69	452.2	45.68	443.14	472.31	44.852	206.21	462.94	43.706	381.86	516.89	400.01	499.93	452.66	405.01	465.79	472.61	323.96	467.82	524.52	324.34	490.83	550.18	862.92	494.14	618.86	876.28	513.49	615.75	784.69	508.09	550.16	773.31	489.09	638.55	492.67	156.67	584.53	493.63	143.06	577.95	430.78	146.7	630.34	437.24	159.09	690.7	821.58	127.01	624.25	833.98	103.31	625.07	758.8	118.82	686.19	748.69	139.84
303	1.2594	592.64	1867	322.21	582.93	1594.4	490.59	599.31	1603.5	84.869	681.86	1093.9	488.26	714.21	1061.7	131.47	477.72	1100.8	341.17	495.99	1106.3	212.6	468.9	1076.2	272.39	672.47	1183	90.199	626.3	1197.2	498.32	649.36	971.87	83.81	607.97	986.19	517	549.13	581.38	469.39	596.02	568.45	345.06	605.94	558.42	305.04	593.45	576	147.29	774.92	72.531	452.99	776.81	85.518	172.57	698.08	57.581	395.43	695.9	57.155	225.25	670.07	50.721	95.084	651.5	45.964	523.66	526.56	111.11	475.95	565.68	117.46	378.66	565.31	126.58	208.66	540.18	123.07	141.29	453.79	73.387	173.22	448.53	69.717	408.21	466.1	45.651	142.69	452.21	45.685	443.14	472.31	44.853	206.21	462.94	43.71	381.86	516.9	400.01	499.91	452.66	405.01	465.79	472.61	323.96	467.81	524.52	324.35	490.8	550.19	862.92	494.15	618.86	876.28	513.49	615.76	784.69	508.09	550.16	773.31	489.1	638.57	492.67	156.67	584.54	493.63	143.06	577.96	430.78	146.69	630.36	437.24	159.08	690.72	821.58	127.01	624.28	833.98	103.31	625.1	758.8	118.82	686.21	748.69	139.84
304	1.2636	592.64	1867	322.2	582.94	1594.4	490.59	599.32	1603.5	84.863	681.86	1093.9	488.27	714.23	1061.7	131.48	477.73	1100.8	341.17	496.01	1106.3	212.6	468.91	1076.2	272.39	672.49	1183	90.202	626.31	1197.2	498.32	649.38	971.87	83.817	607.98	986.19	517.01	549.13	581.38	469.39	596.03	568.45	345.06	605.96	558.42	305.04	593.46	576	147.28	774.93	72.528	452.99	776.81	85.517	172.57	698.08	57.58	395.43	695.9	57.155	225.25	670.08	50.72	95.084	651.5	45.965	523.66	526.56	111.12	475.94	565.68	117.46	378.66	565.31	126.58	208.66	540.18	123.07	141.29	453.79	73.386	173.22	448.53	69.722	408.2	466.1	45.653	142.69	452.21	45.691	443.14	472.31	44.854	206.21	462.95	43.713	381.86	516.91	400.01	499.89	452.65	405.01	465.78	472.61	323.96	467.8	524.52	324.36	490.77	550.19	862.93	494.15	618.87	876.28	513.5	615.76	784.69	508.1	550.16	773.31	489.11	638.58	492.66	156.66	584.56	493.63	143.06	577.97	430.78	146.69	630.37	437.24	159.08	690.74	821.59	127.02	624.3	833.98	103.31	625.12	758.8	118.82	686.24	748.69	139.84
305	1.2677	592.64	1867	322.19	582.95	1594.4	490.59	599.33	1603.5	84.858	681.87	1093.9	488.27	714.25	1061.7	131.48	477.74	1100.8	341.17	496.02	1106.2	212.6	468.93	1076.2	272.39	672.5	1183	90.205	626.31	1197.2	498.33	649.4	971.87	83.823	607.99	986.19	517.01	549.12	581.38	469.39	596.04	568.46	345.06	605.99	558.42	305.04	593.48	576	147.28	774.93	72.525	452.99	776.81	85.516	172.57	698.08	57.579	395.43	695.9	57.155	225.25	670.08	50.72	95.083	651.5	45.965	523.66	526.56	111.12	475.94	565.69	117.46	378.65	565.32	126.58	208.65	540.18	123.07	141.29	453.8	73.386	173.22	448.53	69.727	408.2	466.1	45.654	142.69	452.21	45.697	443.14	472.31	44.854	206.21	462.95	43.718	381.86	516.91	400.02	499.87	452.65	405.01	465.77	472.61	323.97	467.79	524.52	324.36	490.74	550.2	862.93	494.15	618.87	876.28	513.5	615.76	784.69	508.1	550.17	773.31	489.12	638.6	492.66	156.66	584.57	493.63	143.05	577.99	430.78	146.69	630.39	437.24	159.08	690.76	821.59	127.02	624.32	833.98	103.32	625.14	758.8	118.83	686.26	748.69	139.84
306	1.2719	592.64	1867	322.19	582.96	1594.4	490.59	599.33	1603.5	84.853	681.88	1093.9	488.28	714.27	1061.7	131.49	477.75	1100.8	341.17	496.03	1106.2	212.6	468.94	1076.2	272.39	672.52	1183	90.208	626.31	1197.2	498.33	649.42	971.87	83.83	607.99	986.19	517.02	549.12	581.38	469.39	596.05	568.46	345.06	606.01	558.42	305.04	593.5	576	147.28	774.93	72.521	452.99	776.81	85.516	172.57	698.08	57.578	395.43	695.9	57.154	225.25	670.08	50.719	95.083	651.5	45.966	523.66	526.56	111.13	475.94	565.69	117.46	378.65	565.32	126.58	208.65	540.18	123.07	141.29	453.8	73.386	173.22	448.53	69.731	408.19	466.1	45.656	142.69	452.21	45.702	443.14	472.31	44.855	206.21	462.95	43.723	381.86	516.92	400.02	499.85	452.65	405.01	465.76	472.61	323.97	467.78	524.51	324.37	490.71	550.21	862.93	494.16	618.88	876.28	513.51	615.77	784.69	508.1	550.17	773.31	489.13	638.61	492.66	156.66	584.59	493.63	143.05	578	430.78	146.68	630.41	437.24	159.08	690.79	821.59	127.03	624.34	833.98	103.32	625.17	758.8	118.83	686.28	748.69	139.84
